<?xml version="1.0" standalone="no"?>
<!DOCTYPE svg PUBLIC "-//W3C//DTD SVG 20010904//EN"
 "http://www.w3.org/TR/2001/REC-SVG-20010904/DTD/svg10.dtd">
<svg version="1.0" xmlns="http://www.w3.org/2000/svg"
 width="430.000000pt" height="180.000000pt" viewBox="0 0 430.000000 180.000000"
 preserveAspectRatio="xMidYMid meet">
<metadata>
Created by potrace 1.16, written by Peter Selinger 2001-2019
</metadata>
<g transform="translate(0.000000,180.000000) scale(0.100000,-0.100000)"
fill="#000000" stroke="none">
<path d="M979 1604 c-30 -103 -12 -210 44 -271 26 -29 44 -29 52 -2 4 11 9 18
12 16 2 -3 -3 -19 -12 -36 -22 -44 -4 -38 42 12 48 52 67 104 60 164 -8 71
-80 148 -149 159 -34 6 -35 6 -49 -42z"/>
<path d="M760 1594 c-71 -64 -73 -148 -5 -214 19 -18 38 -30 42 -27 4 4 1 13
-5 19 -7 7 -12 16 -12 22 0 5 7 1 15 -10 14 -19 15 -18 35 6 42 54 51 144 19
213 -17 37 -41 34 -89 -9z"/>
<path d="M1966 1442 c-4 -6 -4 -29 0 -51 7 -44 -8 -56 -31 -25 -9 13 -20 15
-48 10 -42 -8 -42 -9 -30 -163 l6 -83 43 0 c24 0 44 5 44 10 0 14 223 13 237
-1 6 -6 28 -9 49 -7 l39 3 8 75 c4 41 12 83 17 92 16 28 12 44 -15 56 -37 17
-75 15 -75 -3 0 -8 -7 -15 -15 -15 -8 0 -15 9 -15 20 0 11 5 20 10 20 6 0 10
9 10 20 0 13 -9 22 -27 26 -16 3 -34 7 -40 10 -29 8 -43 -8 -43 -52 0 -34 -4
-44 -16 -44 -14 0 -16 7 -11 45 4 24 3 46 -2 49 -19 12 -89 18 -95 8z"/>
<path d="M2774 1378 c-29 -45 -129 -149 -183 -190 -52 -40 -31 -50 47 -24 94
32 147 61 197 107 l43 39 20 -34 c25 -42 101 -95 146 -103 32 -5 34 -3 46 31
6 21 20 42 31 49 35 22 20 34 -51 41 -94 8 -150 31 -150 61 0 17 -11 27 -49
44 -27 11 -54 21 -60 21 -6 0 -23 -19 -37 -42z"/>
<path d="M3780 1370 l0 -40 -50 0 c-38 0 -50 -4 -50 -15 0 -11 12 -15 50 -15
l50 0 0 -35 c0 -39 -5 -42 -30 -20 -11 10 -24 12 -45 6 -33 -9 -33 -4 -20
-163 7 -78 7 -78 35 -78 16 0 35 7 44 15 22 22 26 19 26 -20 l0 -35 -50 0
c-38 0 -50 -4 -50 -15 0 -11 12 -15 50 -15 l50 0 0 -36 0 -35 43 3 c39 3 42 5
45 36 3 32 4 32 58 32 46 0 54 3 54 18 0 21 -30 52 -50 52 -8 0 -24 -10 -37
-22 l-23 -21 0 38 c0 30 3 36 12 27 7 -7 26 -12 44 -12 l32 0 7 85 c4 47 11
87 16 91 22 13 8 45 -27 60 -32 14 -38 14 -53 0 -27 -24 -41 -19 -41 15 l0 32
55 -7 c61 -7 76 5 55 43 -13 25 -52 28 -74 6 -8 -8 -19 -15 -25 -15 -14 0 -14
17 -1 25 19 12 10 26 -25 41 -60 25 -75 20 -75 -26z"/>
<path d="M3321 1303 c-13 -27 -36 -67 -52 -91 -16 -24 -29 -45 -29 -48 0 -20
87 18 137 60 l30 25 23 -24 c13 -14 22 -26 19 -27 -36 -22 -57 -28 -99 -28
-38 0 -50 -4 -50 -15 0 -9 9 -15 21 -15 17 0 20 -4 15 -22 -3 -13 -6 -26 -6
-30 0 -5 -13 -8 -30 -8 -20 0 -30 -5 -30 -15 0 -10 10 -15 30 -15 24 0 30 -4
30 -21 0 -16 -4 -19 -17 -14 -10 4 -29 10 -42 13 -19 4 -22 1 -18 -14 4 -11 9
-32 13 -47 6 -26 9 -28 40 -22 21 3 34 2 34 -5 0 -5 -13 -10 -30 -10 -25 0
-30 -4 -30 -25 0 -35 21 -75 39 -74 24 1 174 82 179 97 2 8 -8 12 -32 12 -20
0 -36 5 -36 11 0 5 5 7 10 4 8 -5 42 13 79 42 10 8 -35 43 -55 43 -19 0 -23
-6 -27 -37 l-4 -38 -1 43 c-2 42 -2 42 32 42 41 0 51 12 36 41 -9 16 -19 20
-41 17 -20 -3 -29 0 -29 9 0 7 11 13 26 13 21 0 25 4 21 19 -3 13 3 22 19 30
24 11 40 50 31 75 -3 8 -21 18 -40 21 -27 5 -34 11 -30 24 3 14 -6 22 -36 35
-63 25 -74 21 -100 -31z"/>
<path d="M1284 1221 c-79 -58 -114 -116 -114 -192 l0 -41 38 21 37 22 -32 -31
c-18 -16 -33 -33 -33 -38 0 -14 96 3 125 22 54 36 79 139 54 229 -12 45 -24
46 -75 8z"/>
<path d="M1063 1215 c-62 -27 -90 -112 -62 -182 l12 -28 7 25 c5 16 8 19 9 8
1 -24 11 -23 52 5 42 28 77 89 81 142 3 39 2 40 -32 42 -19 2 -50 -4 -67 -12z"/>
<path d="M251 1132 c-24 -9 -46 -22 -48 -28 -6 -18 65 -91 110 -113 47 -23
141 -29 153 -10 3 6 -7 25 -22 42 -29 31 -11 22 33 -17 13 -11 25 -17 28 -15
7 7 -15 79 -32 105 -34 52 -136 69 -222 36z"/>
<path d="M1865 1108 c-2 -7 -9 -48 -14 -90 -9 -68 -22 -113 -46 -170 -5 -12
-3 -18 7 -18 20 0 86 47 98 70 6 11 20 20 31 20 18 0 20 -4 14 -47 -4 -27 -11
-58 -17 -70 -9 -18 -7 -29 13 -58 13 -19 30 -35 37 -35 20 0 122 81 122 96 0
8 -10 14 -25 14 -23 0 -25 3 -25 49 l0 48 46 7 c97 13 106 8 84 -49 l-10 -27
-34 21 c-44 27 -50 26 -41 -6 11 -46 55 -94 109 -119 71 -33 93 -32 101 6 4
17 15 36 26 43 38 23 22 37 -43 38 l-63 1 33 14 c37 16 41 38 10 55 -20 11
-21 12 -2 22 10 5 21 11 23 13 2 2 -4 15 -13 29 -18 28 -51 33 -81 11 -13 -8
-66 -16 -140 -20 l-121 -6 10 55 10 55 76 0 c41 0 85 -3 98 -6 l23 -7 -27 -13
c-15 -8 -56 -14 -95 -14 -41 0 -69 -4 -69 -10 0 -16 15 -18 128 -23 86 -3 105
-1 110 11 3 9 -4 23 -17 34 -23 18 -23 18 33 18 48 0 56 3 56 18 0 22 -30 52
-51 52 -8 0 -25 -8 -39 -17 -31 -22 -210 -20 -223 3 -10 18 -96 19 -102 2z"/>
<path d="M3570 1086 c-6 -16 -17 -26 -30 -26 -11 0 -20 -7 -20 -15 0 -8 9 -15
20 -15 17 0 20 -7 22 -45 1 -25 2 -53 2 -62 1 -11 -10 -21 -31 -27 -18 -5 -33
-13 -33 -18 0 -30 55 -98 79 -98 9 0 27 20 40 45 l24 45 24 -36 c34 -49 110
-84 185 -84 54 0 57 1 63 30 3 16 15 41 26 55 11 14 19 25 17 26 -2 0 -48 1
-103 2 -82 2 -109 6 -147 26 l-48 23 0 63 c0 35 5 67 10 70 25 15 -8 47 -62
60 -24 6 -29 3 -38 -19z"/>
<path d="M2795 1071 c-4 -7 -4 -28 -1 -46 7 -38 1 -42 -78 -47 -22 -2 -41 -9
-44 -15 -3 -10 14 -13 61 -13 l65 0 4 -82 c2 -46 3 -84 2 -85 0 -2 -39 -6 -87
-9 -61 -5 -87 -11 -87 -20 0 -10 45 -11 223 -7 122 3 224 7 226 9 2 2 1 14 -3
28 -9 36 -50 45 -80 17 -12 -11 -34 -21 -49 -21 -27 0 -27 0 -27 74 0 41 -3
81 -6 90 -5 14 4 16 65 16 62 0 71 2 71 18 0 23 -30 52 -53 52 -10 0 -25 -9
-34 -20 -10 -11 -26 -20 -36 -20 -15 0 -17 5 -12 34 8 40 2 45 -63 53 -33 4
-52 2 -57 -6z"/>
<path d="M756 989 c-14 -17 -26 -39 -26 -50 0 -34 28 -76 58 -88 76 -32 149
49 110 122 -17 34 -39 46 -80 47 -28 0 -42 -7 -62 -31z"/>
<path d="M349 919 c-58 -58 -84 -189 -59 -290 14 -55 37 -89 48 -72 5 9 12 1
21 -22 7 -19 16 -35 20 -35 5 0 11 40 13 90 4 66 14 114 39 185 27 77 31 97
20 107 -32 32 -98 -108 -111 -232 -7 -72 -7 -73 -8 -20 -2 66 16 137 51 207
32 63 33 79 7 93 -16 8 -24 6 -41 -11z"/>
<path d="M490 933 c0 -5 12 -16 26 -24 48 -25 130 -126 176 -215 49 -95 84
-193 113 -311 18 -74 35 -88 35 -30 0 64 42 204 90 304 52 106 129 202 196
243 50 32 44 44 -21 37 -67 -7 -154 -51 -226 -116 l-53 -47 -65 49 c-36 28
-93 63 -126 78 -64 30 -145 48 -145 32z"/>
<path d="M1246 919 c-13 -19 -11 -27 20 -92 18 -40 36 -94 39 -122 l5 -50 -13
56 c-24 105 -80 190 -108 162 -9 -9 -6 -27 14 -75 35 -83 46 -138 47 -225 0
-40 4 -73 8 -73 12 0 42 56 43 82 1 19 2 18 9 -7 l7 -30 22 48 c33 71 32 177
-3 254 -27 58 -52 93 -67 93 -4 0 -14 -9 -23 -21z"/>
<path d="M2078 419 c-15 -8 -18 -24 -18 -82 0 -44 5 -78 12 -85 16 -16 140
-16 156 0 7 7 12 41 12 85 0 61 -3 74 -19 83 -25 13 -121 13 -143 -1z m140
-77 c2 -31 -2 -60 -9 -68 -14 -17 -100 -19 -117 -2 -13 13 -17 110 -5 122 4 4
34 6 68 4 l60 -3 3 -53z"/>
<path d="M2558 419 c-15 -8 -18 -24 -18 -82 0 -44 5 -78 12 -85 16 -16 140
-16 156 0 7 7 12 34 12 60 l0 48 -50 0 c-27 0 -50 -4 -50 -10 0 -5 18 -10 40
-10 37 0 40 -2 40 -28 0 -40 -17 -52 -71 -52 -59 0 -71 14 -67 82 l3 53 78 3
c59 2 77 6 77 17 0 12 -16 15 -72 15 -40 0 -81 -5 -90 -11z"/>
<path d="M3525 343 c-22 -48 -41 -90 -43 -95 -2 -4 3 -8 11 -8 8 0 17 7 21 15
8 23 115 21 132 -2 7 -10 16 -14 20 -10 10 10 -76 187 -91 187 -6 0 -29 -39
-50 -87z"/>
</g>
</svg>
